<svg xmlns="http://www.w3.org/2000/svg" id="Component_1_1" width="20.618" height="13.692" data-name="Component 1 – 1" viewBox="0 0 20.618 13.692">
    <g id="video-camera" transform="translate(0 -86)">
        <g id="Group_1370" data-name="Group 1370" transform="translate(0 86)">
            <path id="Path_1052" fill="#fff" d="M20.283 88.165a.805.805 0 0 0-.727-.109l-4.143 1.394v-1.437A2 2 0 0 0 13.424 86H1.988A2 2 0 0 0 0 88.013v9.665a2 2 0 0 0 1.988 2.013h11.436a2 2 0 0 0 1.988-2.013v-1.436l4.143 1.394a.805.805 0 0 0 1.062-.763v-8.054a.805.805 0 0 0-.334-.654zm-1.275 7.587l-4.143-1.394a.806.806 0 0 0-1.062.763v2.557a.391.391 0 0 1-.378.4H1.988a.391.391 0 0 1-.378-.4v-9.665a.391.391 0 0 1 .378-.4h11.436a.391.391 0 0 1 .378.4v2.557a.806.806 0 0 0 1.062.763l4.143-1.394z" data-name="Path 1052" transform="translate(0 -86)"/>
        </g>
    </g>
</svg>
