<svg xmlns="http://www.w3.org/2000/svg" width="23.417" height="23.417" viewBox="0 0 23.417 23.417">
  <defs>
    <style>
      .cls-1 {
        fill: #a8b6d3;
      }
    </style>
  </defs>
  <path id="Path_989" data-name="Path 989" class="cls-1" d="M24.129,2H3.288A1.287,1.287,0,0,0,2,3.288V24.129a1.287,1.287,0,0,0,1.288,1.288H14.5V16.343H11.46V12.83H14.5V10.2a4.261,4.261,0,0,1,3.808-4.672,4.17,4.17,0,0,1,.735-.012,23.6,23.6,0,0,1,2.728.141V8.814H19.914c-1.475,0-1.756.7-1.756,1.721V12.8H21.67l-.457,3.513H18.158v9.109h5.971a1.287,1.287,0,0,0,1.288-1.288h0V3.288A1.287,1.287,0,0,0,24.129,2Z" transform="translate(-2 -2)"/>
</svg>
