<svg xmlns="http://www.w3.org/2000/svg" width="23.417" height="23.417" viewBox="0 0 23.417 23.417">
  <defs>
    <style>
      .cls-1 {
        fill: #a8b6d3;
      }
    </style>
  </defs>
  <path id="Path_991" data-name="Path 991" class="cls-1" d="M19.961,6.051h0a1.405,1.405,0,1,0,1.405,1.405,1.4,1.4,0,0,0-1.405-1.405Zm5.386,2.833a8.873,8.873,0,0,0-.539-2.845A5.775,5.775,0,0,0,23.45,3.967a5.489,5.489,0,0,0-2.072-1.346,8.533,8.533,0,0,0-2.845-.55C17.291,2,16.893,2,13.708,2s-3.583,0-4.824.07a8.533,8.533,0,0,0-2.845.55A5.612,5.612,0,0,0,3.967,3.967,5.489,5.489,0,0,0,2.621,6.039a8.533,8.533,0,0,0-.55,2.845C2,10.126,2,10.524,2,13.708s0,3.583.07,4.824a8.533,8.533,0,0,0,.55,2.845A5.489,5.489,0,0,0,3.967,23.45,5.612,5.612,0,0,0,6.039,24.8a8.533,8.533,0,0,0,2.845.55c1.241.07,1.639.07,4.824.07s3.583,0,4.824-.07a8.533,8.533,0,0,0,2.845-.55A5.489,5.489,0,0,0,23.45,23.45a5.685,5.685,0,0,0,1.358-2.072,8.873,8.873,0,0,0,.539-2.845c0-1.241.07-1.639.07-4.824S25.417,10.126,25.347,8.885Zm-2.108,9.507a6.55,6.55,0,0,1-.4,2.178,3.591,3.591,0,0,1-.878,1.346,3.733,3.733,0,0,1-1.346.878,6.55,6.55,0,0,1-2.178.4c-1.171.059-1.6.07-4.683.07s-3.513,0-4.683-.07A6.717,6.717,0,0,1,6.8,22.841a3.825,3.825,0,0,1-1.288-.878,3.513,3.513,0,0,1-.866-1.346,6.479,6.479,0,0,1-.468-2.225c0-1.171-.07-1.6-.07-4.683s0-3.513.07-4.683A6.474,6.474,0,0,1,4.588,6.8a3.512,3.512,0,0,1,.925-1.288A3.672,3.672,0,0,1,6.8,4.576a6.708,6.708,0,0,1,2.225-.4c1.171,0,1.6-.07,4.683-.07s3.513,0,4.683.07a6.55,6.55,0,0,1,2.178.4,3.6,3.6,0,0,1,1.393.937A3.576,3.576,0,0,1,22.841,6.8a6.585,6.585,0,0,1,.4,2.225c.059,1.171.07,1.6.07,4.683S23.3,17.221,23.239,18.392ZM13.708,7.7a6,6,0,1,0,.035,0Zm0,9.905a3.9,3.9,0,1,1,3.9-3.9h0A3.9,3.9,0,0,1,13.708,17.607Z" transform="translate(-2 -2)"/>
</svg>
