<svg xmlns="http://www.w3.org/2000/svg" xmlns:xlink="http://www.w3.org/1999/xlink" width="27.247" height="27.247" viewBox="0 0 27.247 27.247">
  <defs>
    <style>
      .cls-1 {
        fill: url(#linear-gradient);
      }
    </style>
    <linearGradient id="linear-gradient" x1="0.186" y1="0.94" x2="0.87" y2="0.208" gradientUnits="objectBoundingBox">
      <stop offset="0.067" stop-color="#e83866"/>
      <stop offset="0.801" stop-color="#e57a3c"/>
    </linearGradient>
  </defs>
  <path id="Path_994" data-name="Path 994" class="cls-1" d="M15.669,2A13.71,13.71,0,0,0,2,15.669a13.275,13.275,0,0,0,3.554,9.159h0a13.627,13.627,0,0,0,19.274.82l.82-.82h0a13.622,13.622,0,0,0-.82-19.274A13.275,13.275,0,0,0,15.669,2Zm0,24.605A11.224,11.224,0,0,1,8.015,23.6a8.255,8.255,0,0,1,10.662-4.511A8.123,8.123,0,0,1,23.188,23.6,10.647,10.647,0,0,1,15.669,26.605ZM12.936,12.936a2.734,2.734,0,1,1,2.734,2.734A2.742,2.742,0,0,1,12.936,12.936Zm12.166,8.2A11.747,11.747,0,0,0,19.77,16.49a5.293,5.293,0,0,0-.547-7.655,5.537,5.537,0,0,0-7.655.41,5.589,5.589,0,0,0,0,7.245,11.747,11.747,0,0,0-5.331,4.648,10.936,10.936,0,1,1,18.864,0Z" transform="translate(-2 -2)"/>
</svg>
