<svg xmlns="http://www.w3.org/2000/svg" width="24.01" height="14.406" viewBox="0 0 24.01 14.406">
    <path id="Path_1044" fill="#e21956" d="M25.446 7.381a1.2 1.2 0 0 0-1.2 0l-4.238 2.088A3.6 3.6 0 0 0 16.406 6H5.6A3.6 3.6 0 0 0 2 9.6v7.2a3.6 3.6 0 0 0 3.6 3.6h10.8a3.6 3.6 0 0 0 3.6-3.469l4.274 2.137A1.189 1.189 0 0 0 26.003 18V8.4a1.2 1.2 0 0 0-.557-1.019zM17.607 16.8a1.2 1.2 0 0 1-1.2 1.2H5.6a1.2 1.2 0 0 1-1.2-1.2V9.6a1.2 1.2 0 0 1 1.2-1.2h10.8a1.2 1.2 0 0 1 1.2 1.2zm6-.744l-3.6-1.8v-2.109l3.6-1.8z" data-name="Path 1044" transform="translate(-2 -6)"/>
</svg>
