<svg xmlns="http://www.w3.org/2000/svg" width="26.149" height="20.893" viewBox="0 0 26.149 20.893">
    <path id="volume" fill="#fff" d="M15.635 4.125a1.307 1.307 0 0 0-1.307.157L8.079 9.224H3.307A1.307 1.307 0 0 0 2 10.531v7.844a1.307 1.307 0 0 0 1.307 1.307h4.772l6.183 4.941a1.307 1.307 0 0 0 .81.288 1.19 1.19 0 0 0 .562-.131 1.307 1.307 0 0 0 .746-1.18V5.3a1.307 1.307 0 0 0-.745-1.177zm-1.87 16.759l-4.419-3.53a1.307 1.307 0 0 0-.81-.288H4.615v-5.228h3.921a1.307 1.307 0 0 0 .81-.288l4.419-3.53zm11.321-13.83A1.313 1.313 0 0 0 23.23 8.91a7.844 7.844 0 0 1-.5 11.556 1.3 1.3 0 0 0 1.673 2 10.458 10.458 0 0 0 .68-15.413zm-3.7 3.7a1.313 1.313 0 0 0-1.856 1.856 2.6 2.6 0 0 1-.157 3.843 1.3 1.3 0 1 0 1.673 2 5.229 5.229 0 0 0 1.869-4 5.307 5.307 0 0 0-1.528-3.7z" transform="translate(-2 -4.018)"/>
</svg>
