<svg xmlns="http://www.w3.org/2000/svg" width="21.81" height="18.007" viewBox="0 0 21.81 18.007">
    <path id="wifi" fill="#e28519" d="M12 15a3 3 0 1 0 3 3 3 3 0 0 0-3-3zm0 4a1 1 0 1 1 1-1 1 1 0 0 1-1 1zm0-8a7.06 7.06 0 0 0-4.95 2.05 1 1 0 1 0 1.41 1.41 5 5 0 0 1 7.08 0A1.015 1.015 0 1 0 17 13.05 7.06 7.06 0 0 0 12 11zm0-4a11.08 11.08 0 0 0-7.78 3.22 1 1 0 0 0 1.42 1.42 9 9 0 0 1 12.72 0 1 1 0 1 0 1.42-1.42A11.08 11.08 0 0 0 12 7zm10.61.39a15 15 0 0 0-21.22 0 1 1 0 0 0 1.42 1.42 13 13 0 0 1 18.38 0 1 1 0 1 0 1.42-1.42z" transform="translate(-1.096 -2.993)"/>
</svg>
